<svg xmlns="http://www.w3.org/2000/svg" xmlns:xlink="http://www.w3.org/1999/xlink" version="1.1" x="0px" y="0px" viewBox="0 0 512 640" enable-background="new 0 0 512 512" xml:space="preserve"><path d="M360.383,126.626h-1.922v-19.157c0.004-9.698-3.873-18.571-10.199-24.964c-3.162-3.202-6.94-5.799-11.162-7.596  c-4.217-1.798-8.877-2.788-13.737-2.788l-134.619,0.001c-4.861-0.001-9.523,0.989-13.747,2.784  c-6.34,2.693-11.696,7.177-15.477,12.816c-3.78,5.637-5.983,12.466-5.98,19.746v19.157h-1.922c-3.866,0-7,3.134-7,7v244.748  c0,3.865,3.134,7,7,7h1.922v19.156c-0.004,9.699,3.874,18.571,10.199,24.965c3.162,3.201,6.942,5.798,11.162,7.596  c4.217,1.798,8.877,2.788,13.738,2.788l134.618-0.001c4.861,0.001,9.525-0.989,13.748-2.784c6.34-2.692,11.697-7.177,15.478-12.815  c3.78-5.637,5.983-12.467,5.979-19.746v-19.157h1.922c3.867,0,7-3.134,7-7V133.626C367.383,129.76,364.25,126.626,360.383,126.626z   M167.539,107.469c0.004-5.94,2.361-11.237,6.198-15.112c1.918-1.932,4.2-3.489,6.73-4.563c2.532-1.074,5.309-1.67,8.275-1.671  l134.619-0.001c2.967,0.002,5.733,0.597,8.254,1.669c3.772,1.606,6.987,4.304,9.258,7.71c2.266,3.409,3.586,7.494,3.588,11.969  v19.157l-176.922-0.001V107.469z M344.461,404.531c-0.004,5.939-2.361,11.236-6.197,15.111c-1.918,1.932-4.2,3.489-6.729,4.563  c-2.533,1.074-5.312,1.67-8.277,1.671l-134.618,0.001c-2.967-0.002-5.733-0.598-8.253-1.669c-3.774-1.606-6.989-4.305-9.258-7.71  c-2.267-3.41-3.586-7.494-3.589-11.97v-19.156l176.922,0.001V404.531z"/><text x="0" y="527" fill="#000000" font-size="5px" font-weight="bold" font-family="'Helvetica Neue', Helvetica, Arial-Unicode, Arial, Sans-serif">Created by Chanut is Industries</text><text x="0" y="532" fill="#000000" font-size="5px" font-weight="bold" font-family="'Helvetica Neue', Helvetica, Arial-Unicode, Arial, Sans-serif">from the Noun Project</text></svg>