<svg xmlns="http://www.w3.org/2000/svg" xmlns:xlink="http://www.w3.org/1999/xlink" version="1.2" baseProfile="tiny" x="0px" y="0px" viewBox="0 0 100 125" xml:space="preserve"><g><path d="M44.911,69.339c1.013,1.013,1.913,2.251,2.701,3.489L93.757,9.801c0.9-1.238,0.788-2.926-0.225-3.939   c-1.125-1.238-3.376-1.125-4.502,0.225L41.422,66.638C42.661,67.426,43.899,68.326,44.911,69.339z"/><path d="M24.878,95c10.692,0,19.696-5.965,19.696-12.943c0-3.264-1.351-6.415-3.714-8.891c-2.476-2.589-6.078-4.052-9.792-4.052   c-4.052,0-7.766,2.476-9.341,6.19c-2.476,5.852-8.216,9.567-14.519,9.567H5.632C7.658,90.611,15.649,95,24.878,95z"/></g><text x="0" y="115" fill="#000000" font-size="5px" font-weight="bold" font-family="'Helvetica Neue', Helvetica, Arial-Unicode, Arial, Sans-serif">Created by Aleks</text><text x="0" y="120" fill="#000000" font-size="5px" font-weight="bold" font-family="'Helvetica Neue', Helvetica, Arial-Unicode, Arial, Sans-serif">from the Noun Project</text></svg>