<svg xmlns="http://www.w3.org/2000/svg" data-name="Layer 1" viewBox="0 0 100 125" x="0px" y="0px"><title>Home</title><path d="M100,53a2.24,2.24,0,0,1-2.53,2.53c-3,0-6.07,0-9.11,0-1.45,0-1.68.25-1.68,1.72q0,15.34,0,30.68A6.33,6.33,0,0,1,80,94.72H63c-2.29,0-2.91-.66-2.91-3,0-5.24,0-10.48,0-15.72a10,10,0,0,0-19.62-2.7A12.51,12.51,0,0,0,40,76.71c0,5,0,10,0,15.07,0,2.27-.69,3-3,3H20.27c-4.34,0-7-2.6-6.94-6.93,0-5,0-9.9,0-14.85q0-7.86,0-15.72c0-1.39-.26-1.65-1.64-1.65q-4.28,0-8.56,0c-2.42,0-3.13-.67-3.13-3,0-2,0-4,0-6.07A5.06,5.06,0,0,1,1.92,42.3Q21,26.42,40.06,10.53l3.5-2.91a10,10,0,0,1,12.95,0L98.05,42.27a5,5,0,0,1,1.94,4C100,48.55,100,50.79,100,53Z"/><path d="M84,27L76.2,20.52c-3-2.49-6-5-9-7.47a1.65,1.65,0,0,1-.73-1.55c0.06-.68,0-1.37,0-2.06a3.17,3.17,0,0,1,3.19-3.38q5.58-.09,11.16,0a3.14,3.14,0,0,1,3.2,3C84.06,15,84,20.88,84,27Z"/><text x="0" y="115" fill="#000000" font-size="5px" font-weight="bold" font-family="'Helvetica Neue', Helvetica, Arial-Unicode, Arial, Sans-serif">Created by i cons</text><text x="0" y="120" fill="#000000" font-size="5px" font-weight="bold" font-family="'Helvetica Neue', Helvetica, Arial-Unicode, Arial, Sans-serif">from the Noun Project</text></svg>