<svg xmlns="http://www.w3.org/2000/svg" xmlns:xlink="http://www.w3.org/1999/xlink" version="1.1" x="0px" y="0px" viewBox="0 0 102.62 121.75750000000001" enable-background="new 0 0 102.62 97.406" xml:space="preserve"><g><path fill="none" d="M48.165,11.817L30.146,29.836l60.797,14.049l0.136-0.135L53.654,6.328l-3.32,3.32l15.014,15.014   c1.758-0.776,3.884-0.456,5.325,0.985c1.872,1.873,1.872,4.909,0,6.781c-1.873,1.873-4.909,1.873-6.781,0   c-1.541-1.54-1.793-3.86-0.798-5.68L48.165,11.817z"/><path d="M97.406,43.75c0-0.695-0.276-1.362-0.768-1.854L55.508,0.768c-1.023-1.023-2.683-1.023-3.707,0L46.628,5.94L41.38,0.692   c-0.6-0.6-1.57-0.6-2.17,0c-0.599,0.599-0.599,1.571,0,2.17l5.248,5.248L0.768,51.801C0.276,52.293,0,52.959,0,53.655   s0.276,1.361,0.768,1.854l41.13,41.13c0.512,0.512,1.182,0.768,1.853,0.768s1.341-0.256,1.854-0.768l51.034-51.034   C97.13,45.112,97.406,44.446,97.406,43.75z M63.893,32.428c1.872,1.873,4.908,1.873,6.781,0c1.872-1.872,1.872-4.909,0-6.781   c-1.441-1.44-3.567-1.761-5.325-0.985L50.334,9.647l3.32-3.32L91.078,43.75l-0.136,0.135L30.146,29.836l18.019-18.019l14.93,14.93   C62.1,28.567,62.352,30.888,63.893,32.428z"/><path d="M98.52,51.097c-2.172,8.419-7.157,18.701,0.228,18.701C106.18,69.798,101.086,59.599,98.52,51.097z"/></g><text x="0" y="112.406" fill="#000000" font-size="5px" font-weight="bold" font-family="'Helvetica Neue', Helvetica, Arial-Unicode, Arial, Sans-serif">Created by Florent B</text><text x="0" y="117.406" fill="#000000" font-size="5px" font-weight="bold" font-family="'Helvetica Neue', Helvetica, Arial-Unicode, Arial, Sans-serif">from the Noun Project</text></svg>